<svg xmlns="http://www.w3.org/2000/svg" viewBox="0 0 1100 980" font-family="Arial, Helvetica, sans-serif">
  <defs>
    <marker id="arrow" viewBox="0 0 10 10" refX="9" refY="5" markerWidth="6" markerHeight="6" orient="auto">
      <path d="M 0 0 L 10 5 L 0 10 z" fill="#666"/>
    </marker>
    <marker id="bluearrow" viewBox="0 0 10 10" refX="9" refY="5" markerWidth="6" markerHeight="6" orient="auto">
      <path d="M 0 0 L 10 5 L 0 10 z" fill="#377EB8"/>
    </marker>
    <marker id="greenarrow" viewBox="0 0 10 10" refX="9" refY="5" markerWidth="6" markerHeight="6" orient="auto">
      <path d="M 0 0 L 10 5 L 0 10 z" fill="#1B9E77"/>
    </marker>
    <marker id="purplearrow" viewBox="0 0 10 10" refX="9" refY="5" markerWidth="6" markerHeight="6" orient="auto">
      <path d="M 0 0 L 10 5 L 0 10 z" fill="#7570B3"/>
    </marker>
    <marker id="orangearrow" viewBox="0 0 10 10" refX="9" refY="5" markerWidth="6" markerHeight="6" orient="auto">
      <path d="M 0 0 L 10 5 L 0 10 z" fill="#D95F02"/>
    </marker>
    <symbol id="bolt" viewBox="0 0 20 30">
      <polygon points="12,0 4,14 10,14 8,30 16,16 10,16" fill="#E6AB02"/>
    </symbol>
  </defs>

  <!-- ================================================================ -->
  <!-- PANEL A: VCF INPUT (tightened)                                   -->
  <!-- ================================================================ -->
  <text x="30" y="32" font-size="18" font-weight="bold" fill="#333">a</text>
  <text x="52" y="32" font-size="13" font-weight="bold" fill="#333">Input: Variant Call Format (VCF)</text>

  <rect x="30" y="44" width="1040" height="95" rx="8" fill="#FFFEF5" stroke="#CCC" stroke-width="1.5"/>

  <!-- Column header line -->
  <rect x="38" y="54" width="1024" height="18" rx="2" fill="#F0F0F0"/>
  <text x="44" y="67" font-size="10" font-family="monospace" fill="#E6AB02" font-weight="bold">#CHROM</text>
  <text x="104" y="67" font-size="10" font-family="monospace" fill="#377EB8" font-weight="bold">POS</text>
  <text x="148" y="67" font-size="10" font-family="monospace" fill="#377EB8" font-weight="bold">ID</text>
  <text x="183" y="67" font-size="10" font-family="monospace" fill="#377EB8" font-weight="bold">REF</text>
  <text x="212" y="67" font-size="10" font-family="monospace" fill="#377EB8" font-weight="bold">ALT</text>
  <text x="242" y="67" font-size="10" font-family="monospace" fill="#888">QUAL</text>
  <text x="278" y="67" font-size="10" font-family="monospace" fill="#888">FILTER</text>
  <text x="328" y="67" font-size="10" font-family="monospace" fill="#888">INFO</text>
  <text x="372" y="67" font-size="10" font-family="monospace" fill="#888">FORMAT</text>
  <text x="430" y="67" font-size="10" font-family="monospace" fill="#E7298A" font-weight="bold">HG00096</text>
  <text x="505" y="67" font-size="10" font-family="monospace" fill="#E7298A" font-weight="bold">HG00097</text>
  <text x="580" y="67" font-size="10" font-family="monospace" fill="#E7298A" font-weight="bold">HG00099</text>
  <text x="655" y="67" font-size="10" font-family="monospace" fill="#E7298A" font-weight="bold">HG00100</text>
  <text x="730" y="67" font-size="10" font-family="monospace" fill="#E7298A" font-weight="bold">NA18525</text>
  <text x="805" y="67" font-size="10" font-family="monospace" fill="#E7298A" font-weight="bold">NA18526</text>
  <text x="880" y="67" font-size="10" font-family="monospace" fill="#E7298A">... (3,202 samples)</text>

  <!-- Data row 1 -->
  <rect x="38" y="74" width="1024" height="18" rx="2" fill="#E8F4FD" opacity="0.4"/>
  <text x="44" y="87" font-size="10" font-family="monospace" fill="#E6AB02">chr22</text>
  <text x="104" y="87" font-size="10" font-family="monospace" fill="#377EB8">16050075</text>
  <text x="148" y="87" font-size="10" font-family="monospace" fill="#377EB8">rs587697622</text>
  <text x="202" y="87" font-size="10" font-family="monospace" fill="#377EB8">G</text>
  <text x="222" y="87" font-size="10" font-family="monospace" fill="#377EB8">A</text>
  <text x="249" y="87" font-size="10" font-family="monospace" fill="#888">100</text>
  <text x="285" y="87" font-size="10" font-family="monospace" fill="#888">PASS</text>
  <text x="328" y="87" font-size="10" font-family="monospace" fill="#888">AC=520</text>
  <text x="378" y="87" font-size="10" font-family="monospace" fill="#888">GT</text>
  <rect x="426" y="74" width="636" height="18" rx="2" fill="#E8F9E8" opacity="0.4"/>
  <text x="430" y="87" font-size="10" font-family="monospace" fill="#1B9E77" font-weight="bold">0|0</text>
  <text x="505" y="87" font-size="10" font-family="monospace" fill="#1B9E77" font-weight="bold">0|1</text>
  <text x="580" y="87" font-size="10" font-family="monospace" fill="#1B9E77" font-weight="bold">1|1</text>
  <text x="655" y="87" font-size="10" font-family="monospace" fill="#1B9E77" font-weight="bold">0|0</text>
  <text x="730" y="87" font-size="10" font-family="monospace" fill="#1B9E77" font-weight="bold">0|1</text>
  <text x="805" y="87" font-size="10" font-family="monospace" fill="#1B9E77" font-weight="bold">0|0</text>
  <text x="880" y="87" font-size="10" font-family="monospace" fill="#1B9E77" font-weight="bold">...</text>

  <!-- Data row 2 -->
  <text x="44" y="104" font-size="10" font-family="monospace" fill="#E6AB02">chr22</text>
  <text x="104" y="104" font-size="10" font-family="monospace" fill="#377EB8">16050115</text>
  <text x="148" y="104" font-size="10" font-family="monospace" fill="#377EB8">rs587755077</text>
  <text x="202" y="104" font-size="10" font-family="monospace" fill="#377EB8">G</text>
  <text x="222" y="104" font-size="10" font-family="monospace" fill="#377EB8">A</text>
  <text x="249" y="104" font-size="10" font-family="monospace" fill="#888">100</text>
  <text x="285" y="104" font-size="10" font-family="monospace" fill="#888">PASS</text>
  <text x="328" y="104" font-size="10" font-family="monospace" fill="#888">AC=13</text>
  <text x="378" y="104" font-size="10" font-family="monospace" fill="#888">GT</text>
  <text x="430" y="104" font-size="10" font-family="monospace" fill="#1B9E77">0|0</text>
  <text x="505" y="104" font-size="10" font-family="monospace" fill="#1B9E77">0|0</text>
  <text x="580" y="104" font-size="10" font-family="monospace" fill="#1B9E77">0|0</text>
  <text x="655" y="104" font-size="10" font-family="monospace" fill="#1B9E77">0|1</text>
  <text x="730" y="104" font-size="10" font-family="monospace" fill="#1B9E77">0|0</text>
  <text x="805" y="104" font-size="10" font-family="monospace" fill="#1B9E77">0|0</text>
  <text x="880" y="104" font-size="10" font-family="monospace" fill="#1B9E77">...</text>

  <!-- Row count + color key -->
  <text x="550" y="125" text-anchor="middle" font-size="9" fill="#888" font-style="italic">1,070,000 rows x 3,202 samples</text>

  <rect x="50" y="118" width="10" height="10" rx="2" fill="#E6AB02"/>
  <text x="64" y="127" font-size="10" fill="#E6AB02" font-weight="bold">Chromosome</text>
  <rect x="150" y="118" width="10" height="10" rx="2" fill="#377EB8"/>
  <text x="164" y="127" font-size="10" fill="#377EB8" font-weight="bold">Variant</text>
  <rect x="780" y="118" width="10" height="10" rx="2" fill="#E7298A"/>
  <text x="794" y="127" font-size="10" fill="#E7298A" font-weight="bold">Samples</text>
  <rect x="880" y="118" width="10" height="10" rx="2" fill="#1B9E77"/>
  <text x="894" y="127" font-size="10" fill="#1B9E77" font-weight="bold">Genotype calls</text>

  <!-- Ingest arrow -->
  <rect x="440" y="152" width="220" height="28" rx="14" fill="#377EB8"/>
  <text x="550" y="171" text-anchor="middle" font-size="12" fill="#fff" font-weight="bold">graphmana ingest</text>

  <!-- ================================================================ -->
  <!-- PANEL B: GRAPH DATABASE                                          -->
  <!-- ================================================================ -->
  <text x="30" y="212" font-size="18" font-weight="bold" fill="#333">b</text>
  <text x="52" y="212" font-size="13" font-weight="bold" fill="#333">Graph database: two data stores, one Variant node</text>

  <rect x="30" y="224" width="1040" height="330" rx="12" fill="#F5F8FC" stroke="#377EB8" stroke-width="2"/>

  <!-- Chromosome node -->
  <circle cx="80" cy="290" r="30" fill="#E6AB02" stroke="#fff" stroke-width="2"/>
  <text x="80" y="285" text-anchor="middle" font-size="10" fill="#fff" font-weight="bold">Chromosome</text>
  <text x="80" y="300" text-anchor="middle" font-size="12" fill="#fff" font-weight="bold">chr22</text>

  <!-- Variant nodes (chain) -->
  <circle cx="260" cy="290" r="38" fill="#377EB8" stroke="#fff" stroke-width="2.5"/>
  <text x="260" y="282" text-anchor="middle" font-size="9" fill="#fff" font-weight="bold">Variant</text>
  <text x="260" y="296" text-anchor="middle" font-size="9" fill="#ddd">16050075</text>
  <text x="260" y="310" text-anchor="middle" font-size="11" fill="#fff" font-weight="bold">G &gt; A</text>

  <path d="M 222 290 L 113 290" stroke="#E6AB02" stroke-width="2" marker-end="url(#orangearrow)" fill="none"/>
  <text x="165" y="283" text-anchor="middle" font-size="8" fill="#A67C00" font-weight="bold">ON_CHROMOSOME</text>

  <circle cx="460" cy="290" r="30" fill="#377EB8" stroke="#fff" stroke-width="2"/>
  <text x="460" y="285" text-anchor="middle" font-size="9" fill="#fff" font-weight="bold">Variant</text>
  <text x="460" y="300" text-anchor="middle" font-size="9" fill="#ddd">16050115</text>

  <path d="M 300 290 L 428 290" stroke="#377EB8" stroke-width="2" marker-end="url(#bluearrow)" fill="none"/>
  <rect x="340" y="276" width="48" height="16" rx="3" fill="#E8F4FD" stroke="#377EB8" stroke-width="0.5"/>
  <text x="364" y="287" text-anchor="middle" font-size="8" fill="#377EB8" font-weight="bold">NEXT</text>

  <circle cx="600" cy="290" r="30" fill="#377EB8" stroke="#fff" stroke-width="2"/>
  <text x="600" y="285" text-anchor="middle" font-size="9" fill="#fff" font-weight="bold">Variant</text>
  <text x="600" y="300" text-anchor="middle" font-size="9" fill="#ddd">16050213</text>

  <path d="M 492 290 L 568 290" stroke="#377EB8" stroke-width="2" marker-end="url(#bluearrow)" fill="none"/>
  <rect x="508" y="276" width="48" height="16" rx="3" fill="#E8F4FD" stroke="#377EB8" stroke-width="0.5"/>
  <text x="532" y="287" text-anchor="middle" font-size="8" fill="#377EB8" font-weight="bold">NEXT</text>

  <text x="650" y="295" font-size="16" fill="#377EB8">...</text>
  <text x="675" y="295" font-size="9" fill="#888">1.07M</text>

  <!-- Sample nodes -->
  <circle cx="740" cy="265" r="22" fill="#E7298A" stroke="#fff" stroke-width="1.5"/>
  <text x="740" y="262" text-anchor="middle" font-size="8" fill="#fff" font-weight="bold">Sample</text>
  <text x="740" y="274" text-anchor="middle" font-size="8" fill="#fff">HG00096</text>

  <circle cx="810" cy="265" r="22" fill="#E7298A" stroke="#fff" stroke-width="1.5"/>
  <text x="810" y="262" text-anchor="middle" font-size="8" fill="#fff" font-weight="bold">Sample</text>
  <text x="810" y="274" text-anchor="middle" font-size="8" fill="#fff">HG00097</text>

  <circle cx="880" cy="265" r="22" fill="#E7298A" stroke="#fff" stroke-width="1.5"/>
  <text x="880" y="262" text-anchor="middle" font-size="8" fill="#fff" font-weight="bold">Sample</text>
  <text x="880" y="274" text-anchor="middle" font-size="8" fill="#fff">NA18525</text>

  <text x="920" y="270" font-size="11" fill="#E7298A">...</text>
  <text x="945" y="270" font-size="9" fill="#888">3,202</text>

  <!-- Population nodes -->
  <circle cx="760" cy="335" r="18" fill="#66A61E" stroke="#fff" stroke-width="1.5"/>
  <text x="760" y="339" text-anchor="middle" font-size="8" fill="#fff" font-weight="bold">GBR</text>

  <circle cx="830" cy="335" r="18" fill="#66A61E" stroke="#fff" stroke-width="1.5"/>
  <text x="830" y="339" text-anchor="middle" font-size="8" fill="#fff" font-weight="bold">YRI</text>

  <circle cx="900" cy="335" r="18" fill="#66A61E" stroke="#fff" stroke-width="1.5"/>
  <text x="900" y="339" text-anchor="middle" font-size="8" fill="#fff" font-weight="bold">CHB</text>

  <text x="935" y="340" font-size="10" fill="#66A61E">...</text>

  <path d="M 740 289 L 760 315" stroke="#66A61E" stroke-width="1.5" marker-end="url(#arrow)" fill="none"/>
  <path d="M 880 289 L 850 317" stroke="#66A61E" stroke-width="1.5" marker-end="url(#arrow)" fill="none"/>
  <text x="960" y="330" font-size="8" fill="#66A61E" font-weight="bold">IN_POP</text>

  <!-- Gene node -->
  <circle cx="960" cy="265" r="20" fill="#D95F02" stroke="#fff" stroke-width="1.5"/>
  <text x="960" y="262" text-anchor="middle" font-size="8" fill="#fff" font-weight="bold">Gene</text>
  <text x="960" y="274" text-anchor="middle" font-size="9" fill="#fff">POTEH</text>

  <!-- ============ DUAL STORAGE CALLOUT ============ -->
  <!-- Highlight label -->
  <rect x="130" y="380" width="860" height="26" rx="13" fill="#FFF3E0" stroke="#D95F02" stroke-width="1.5"/>
  <text x="560" y="398" text-anchor="middle" font-size="12" fill="#D95F02" font-weight="bold">Each Variant node stores two data representations side by side</text>

  <!-- LEFT: gt_packed (purple) -->
  <rect x="50" y="418" width="460" height="140" rx="8" fill="#F5F0FA" stroke="#7570B3" stroke-width="2"/>
  <text x="280" y="435" text-anchor="middle" font-size="12" font-weight="bold" fill="#7570B3">Per-sample genotypes (packed bytes)</text>

  <!-- gt_packed bytes -->
  <text x="68" y="456" font-size="10" fill="#7570B3" font-weight="bold">gt_packed:</text>
  <rect x="160" y="446" width="34" height="16" rx="3" fill="#7570B3"/>
  <rect x="196" y="446" width="34" height="16" rx="3" fill="#7570B3"/>
  <rect x="232" y="446" width="34" height="16" rx="3" fill="#9E9AC8"/>
  <rect x="268" y="446" width="34" height="16" rx="3" fill="#9E9AC8"/>
  <text x="308" y="458" font-size="10" fill="#7570B3">...</text>
  <rect x="322" y="446" width="34" height="16" rx="3" fill="#9E9AC8"/>
  <rect x="358" y="446" width="34" height="16" rx="3" fill="#9E9AC8"/>
  <text x="68" y="476" font-size="9" fill="#555">2 bits/sample = 801 bytes</text>

  <!-- phase_packed -->
  <text x="68" y="497" font-size="10" fill="#7570B3" font-weight="bold">phase_packed:</text>
  <rect x="180" y="487" width="30" height="16" rx="3" fill="#7570B3" opacity="0.6"/>
  <rect x="212" y="487" width="30" height="16" rx="3" fill="#7570B3" opacity="0.6"/>
  <rect x="244" y="487" width="30" height="16" rx="3" fill="#7570B3" opacity="0.6"/>
  <text x="280" y="499" font-size="10" fill="#7570B3">...</text>
  <text x="68" y="515" font-size="9" fill="#555">1 bit/sample = 401 bytes</text>

  <!-- called_packed (v1.1) -->
  <text x="68" y="536" font-size="10" fill="#7570B3" font-weight="bold">called_packed:</text>
  <rect x="180" y="526" width="30" height="16" rx="3" fill="#D95F02"/>
  <rect x="212" y="526" width="30" height="16" rx="3" fill="#D95F02"/>
  <rect x="244" y="526" width="30" height="16" rx="3" fill="#D95F02" opacity="0.35"/>
  <text x="280" y="538" font-size="10" fill="#D95F02">...</text>
  <text x="68" y="553" font-size="9" fill="#555">1 bit/sample = 401 bytes  (interrogated? y/n)</text>

  <!-- Scaling callout -->
  <rect x="60" y="535" width="440" height="0" fill="none"/>

  <!-- Connector from Variant node -->
  <path d="M 240 325 L 230 415" stroke="#7570B3" stroke-width="2" stroke-dasharray="4,3" fill="none"/>

  <!-- RIGHT: Population arrays (green) -->
  <rect x="530" y="418" width="520" height="140" rx="8" fill="#F0FAF0" stroke="#1B9E77" stroke-width="2"/>
  <text x="790" y="438" text-anchor="middle" font-size="12" font-weight="bold" fill="#1B9E77">Pre-computed population stats (arrays)</text>

  <!-- pop_ids -->
  <text x="545" y="464" font-size="9" fill="#555" font-weight="bold">pop_ids:</text>
  <rect x="605" y="452" width="40" height="18" rx="3" fill="#66A61E" stroke="#fff"/>
  <text x="625" y="465" text-anchor="middle" font-size="8" fill="#fff" font-weight="bold">AFR</text>
  <rect x="648" y="452" width="40" height="18" rx="3" fill="#E6AB02" stroke="#fff"/>
  <text x="668" y="465" text-anchor="middle" font-size="8" fill="#fff" font-weight="bold">EUR</text>
  <rect x="691" y="452" width="40" height="18" rx="3" fill="#E7298A" stroke="#fff"/>
  <text x="711" y="465" text-anchor="middle" font-size="8" fill="#fff" font-weight="bold">EAS</text>
  <rect x="734" y="452" width="40" height="18" rx="3" fill="#7570B3" stroke="#fff"/>
  <text x="754" y="465" text-anchor="middle" font-size="8" fill="#fff" font-weight="bold">SAS</text>
  <rect x="777" y="452" width="40" height="18" rx="3" fill="#D95F02" stroke="#fff"/>
  <text x="797" y="465" text-anchor="middle" font-size="8" fill="#fff" font-weight="bold">AMR</text>

  <!-- ac[] -->
  <text x="545" y="488" font-size="9" fill="#555" font-weight="bold">ac[]:</text>
  <rect x="605" y="476" width="40" height="18" rx="3" fill="#1B9E77"/>
  <text x="625" y="489" text-anchor="middle" font-size="9" fill="#fff" font-weight="bold">342</text>
  <rect x="648" y="476" width="40" height="18" rx="3" fill="#1B9E77"/>
  <text x="668" y="489" text-anchor="middle" font-size="9" fill="#fff" font-weight="bold">87</text>
  <rect x="691" y="476" width="40" height="18" rx="3" fill="#1B9E77"/>
  <text x="711" y="489" text-anchor="middle" font-size="9" fill="#fff" font-weight="bold">12</text>
  <rect x="734" y="476" width="40" height="18" rx="3" fill="#1B9E77"/>
  <text x="754" y="489" text-anchor="middle" font-size="9" fill="#fff" font-weight="bold">56</text>
  <rect x="777" y="476" width="40" height="18" rx="3" fill="#1B9E77"/>
  <text x="797" y="489" text-anchor="middle" font-size="9" fill="#fff" font-weight="bold">23</text>

  <!-- af[] -->
  <text x="545" y="512" font-size="9" fill="#555" font-weight="bold">af[]:</text>
  <rect x="605" y="500" width="40" height="18" rx="3" fill="#1B9E77" opacity="0.6"/>
  <text x="625" y="513" text-anchor="middle" font-size="9" fill="#fff" font-weight="bold">.259</text>
  <rect x="648" y="500" width="40" height="18" rx="3" fill="#1B9E77" opacity="0.6"/>
  <text x="668" y="513" text-anchor="middle" font-size="9" fill="#fff" font-weight="bold">.086</text>
  <rect x="691" y="500" width="40" height="18" rx="3" fill="#1B9E77" opacity="0.6"/>
  <text x="711" y="513" text-anchor="middle" font-size="9" fill="#fff" font-weight="bold">.012</text>
  <rect x="734" y="500" width="40" height="18" rx="3" fill="#1B9E77" opacity="0.6"/>
  <text x="754" y="513" text-anchor="middle" font-size="9" fill="#fff" font-weight="bold">.057</text>
  <rect x="777" y="500" width="40" height="18" rx="3" fill="#1B9E77" opacity="0.6"/>
  <text x="797" y="513" text-anchor="middle" font-size="9" fill="#fff" font-weight="bold">.033</text>

  <text x="545" y="532" font-size="9" fill="#888" font-style="italic">+ an[], het_count[], hom_alt_count[]</text>

  <!-- Connector -->
  <path d="M 290 325 L 600 415" stroke="#1B9E77" stroke-width="2" stroke-dasharray="4,3" fill="none"/>

  <!-- Scaling annotations -->
  <text x="280" y="575" text-anchor="middle" font-size="11" fill="#7570B3" font-weight="bold">Grows with N (samples)</text>
  <text x="790" y="575" text-anchor="middle" font-size="11" fill="#1B9E77" font-weight="bold">Fixed at K (populations)</text>

  <!-- ================================================================ -->
  <!-- PANEL C: TWO ACCESS PATHS (simplified)                           -->
  <!-- ================================================================ -->
  <text x="30" y="605" font-size="18" font-weight="bold" fill="#333">c</text>
  <text x="52" y="605" font-size="13" font-weight="bold" fill="#333">Two access paths serve 17 export formats</text>

  <!-- FULL PATH -->
  <rect x="30" y="620" width="510" height="330" rx="12" fill="#F5F0FA" stroke="#7570B3" stroke-width="2.5"/>

  <rect x="32" y="622" width="506" height="32" rx="10" fill="#7570B3"/>
  <text x="285" y="643" text-anchor="middle" font-size="14" fill="#fff" font-weight="bold">FULL PATH   O(N) per variant</text>

  <text x="50" y="678" font-size="11" font-weight="bold" fill="#7570B3">Reads gt_packed + phase_packed</text>
  <text x="50" y="694" font-size="10" fill="#555">Unpacks 2-bit genotype + 1-bit phase per sample</text>

  <!-- Unpacking visual -->
  <rect x="50" y="706" width="470" height="78" rx="6" fill="#fff" stroke="#7570B3" stroke-width="1"/>

  <rect x="65" y="715" width="80" height="20" rx="3" fill="#7570B3"/>
  <text x="105" y="729" text-anchor="middle" font-size="9" fill="#fff" font-weight="bold">11 01 10 00</text>
  <rect x="65" y="738" width="80" height="14" rx="3" fill="#B3A8D6"/>
  <text x="105" y="748" text-anchor="middle" font-size="8" fill="#fff" font-weight="bold">phase 0100</text>

  <path d="M 150 732 L 175 732" stroke="#7570B3" stroke-width="1.5" marker-end="url(#purplearrow)" fill="none"/>

  <rect x="182" y="718" width="44" height="28" rx="4" fill="#377EB8"/>
  <text x="204" y="736" text-anchor="middle" font-size="10" fill="#fff" font-weight="bold">0/0</text>
  <rect x="230" y="718" width="44" height="28" rx="4" fill="#D95F02"/>
  <text x="252" y="736" text-anchor="middle" font-size="10" fill="#fff" font-weight="bold">1/1</text>
  <rect x="278" y="718" width="44" height="28" rx="4" fill="#E7298A"/>
  <text x="300" y="736" text-anchor="middle" font-size="10" fill="#fff" font-weight="bold">0|1</text>
  <rect x="326" y="718" width="44" height="28" rx="4" fill="#999"/>
  <text x="348" y="736" text-anchor="middle" font-size="10" fill="#fff" font-weight="bold">./.</text>

  <text x="385" y="730" font-size="9" fill="#7570B3">x 3,202 samples</text>
  <text x="385" y="743" font-size="9" fill="#7570B3">x 1.07M variants</text>

  <text x="65" y="765" font-size="8" fill="#555" font-family="monospace">gt_packed: 00=0/0  01=0/1  10=1/1  11=./.  (2 bits/sample, LSB-first)</text>
  <text x="65" y="775" font-size="8" fill="#555" font-family="monospace">phase_packed: 0=unphased (/)  1=phased (|)  (1 bit/sample)</text>

  <!-- Output formats -->
  <text x="50" y="800" font-size="11" font-weight="bold" fill="#7570B3">12 output formats:</text>

  <rect x="50" y="810" width="70" height="26" rx="5" fill="#7570B3" stroke="#fff"/>
  <text x="85" y="828" text-anchor="middle" font-size="10" fill="#fff" font-weight="bold">VCF</text>
  <rect x="125" y="810" width="70" height="26" rx="5" fill="#7570B3" stroke="#fff"/>
  <text x="160" y="828" text-anchor="middle" font-size="10" fill="#fff" font-weight="bold">PLINK</text>
  <rect x="200" y="810" width="90" height="26" rx="5" fill="#7570B3" stroke="#fff"/>
  <text x="245" y="828" text-anchor="middle" font-size="10" fill="#fff" font-weight="bold">EIGENSTRAT</text>
  <rect x="295" y="810" width="70" height="26" rx="5" fill="#7570B3" stroke="#fff"/>
  <text x="330" y="828" text-anchor="middle" font-size="10" fill="#fff" font-weight="bold">Beagle</text>
  <rect x="370" y="810" width="90" height="26" rx="5" fill="#9E9AC8" stroke="#fff"/>
  <text x="415" y="828" text-anchor="middle" font-size="10" fill="#fff" font-weight="bold">STRUCTURE</text>
  <rect x="465" y="810" width="55" height="26" rx="5" fill="#9E9AC8" stroke="#fff"/>
  <text x="492" y="828" text-anchor="middle" font-size="10" fill="#fff" font-weight="bold">+7 more</text>

  <text x="50" y="864" font-size="10" fill="#555">Used for: PCA, admixture, GWAS, phasing, imputation, relatedness</text>

  <rect x="50" y="880" width="470" height="32" rx="6" fill="#E8DCF5"/>
  <text x="285" y="901" text-anchor="middle" font-size="13" fill="#7570B3" font-weight="bold">75 s (PLINK export, chr22, 3,202 samples)</text>

  <!-- FAST PATH -->
  <rect x="560" y="620" width="510" height="330" rx="12" fill="#F0FAF0" stroke="#1B9E77" stroke-width="2.5"/>

  <rect x="562" y="622" width="506" height="32" rx="10" fill="#1B9E77"/>
  <text x="815" y="643" text-anchor="middle" font-size="14" fill="#fff" font-weight="bold">FAST PATH   O(K) per variant</text>
  <use href="#bolt" x="900" y="625" width="16" height="24"/>

  <text x="580" y="678" font-size="11" font-weight="bold" fill="#1B9E77">Reads ac[], an[], af[] directly</text>
  <text x="580" y="694" font-size="10" fill="#555">Skips gt_packed entirely. Reads K pre-computed values.</text>

  <!-- Direct read visual -->
  <rect x="580" y="706" width="470" height="78" rx="6" fill="#fff" stroke="#1B9E77" stroke-width="1"/>

  <text x="595" y="724" font-size="9" fill="#555" font-weight="bold">ac[]:</text>
  <rect x="630" y="713" width="40" height="22" rx="4" fill="#1B9E77"/>
  <text x="650" y="728" text-anchor="middle" font-size="10" fill="#fff" font-weight="bold">342</text>
  <rect x="673" y="713" width="40" height="22" rx="4" fill="#1B9E77"/>
  <text x="693" y="728" text-anchor="middle" font-size="10" fill="#fff" font-weight="bold">87</text>
  <rect x="716" y="713" width="40" height="22" rx="4" fill="#1B9E77"/>
  <text x="736" y="728" text-anchor="middle" font-size="10" fill="#fff" font-weight="bold">12</text>
  <rect x="759" y="713" width="40" height="22" rx="4" fill="#1B9E77"/>
  <text x="779" y="728" text-anchor="middle" font-size="10" fill="#fff" font-weight="bold">56</text>
  <rect x="802" y="713" width="40" height="22" rx="4" fill="#1B9E77"/>
  <text x="822" y="728" text-anchor="middle" font-size="10" fill="#fff" font-weight="bold">23</text>

  <path d="M 852 724 L 880 724" stroke="#1B9E77" stroke-width="1.5" marker-end="url(#greenarrow)" fill="none"/>
  <text x="900" y="721" font-size="10" fill="#1B9E77" font-weight="bold">Done</text>
  <text x="900" y="734" font-size="9" fill="#1B9E77">5 values only</text>

  <text x="595" y="752" font-size="9" fill="#CCC">gt_packed:</text>
  <line x1="588" y1="748" x2="660" y2="748" stroke="#E41A1C" stroke-width="2"/>
  <text x="670" y="752" font-size="10" fill="#E41A1C" font-weight="bold">SKIPPED</text>
  <text x="740" y="752" font-size="9" fill="#888">(never unpacked)</text>

  <text x="595" y="767" font-size="8" fill="#555" font-family="monospace">ac[k] = alt-allele count in population k   ·   K populations (K=5 here)</text>
  <text x="595" y="777" font-size="8" fill="#555" font-family="monospace">Array length = K, independent of sample count N   →   O(K) per variant</text>

  <!-- Output formats -->
  <text x="580" y="800" font-size="11" font-weight="bold" fill="#1B9E77">5 output formats:</text>

  <rect x="580" y="810" width="80" height="26" rx="5" fill="#1B9E77" stroke="#fff"/>
  <text x="620" y="828" text-anchor="middle" font-size="10" fill="#fff" font-weight="bold">TreeMix</text>
  <rect x="665" y="810" width="85" height="26" rx="5" fill="#1B9E77" stroke="#fff"/>
  <text x="707" y="828" text-anchor="middle" font-size="10" fill="#fff" font-weight="bold">SFS (dadi)</text>
  <rect x="755" y="810" width="90" height="26" rx="5" fill="#1B9E77" stroke="#fff"/>
  <text x="800" y="828" text-anchor="middle" font-size="10" fill="#fff" font-weight="bold">SFS (fsc2)</text>
  <rect x="850" y="810" width="60" height="26" rx="5" fill="#1B9E77" stroke="#fff"/>
  <text x="880" y="828" text-anchor="middle" font-size="10" fill="#fff" font-weight="bold">BED</text>
  <rect x="915" y="810" width="55" height="26" rx="5" fill="#1B9E77" opacity="0.7" stroke="#fff"/>
  <text x="942" y="828" text-anchor="middle" font-size="10" fill="#fff" font-weight="bold">TSV</text>

  <text x="580" y="864" font-size="10" fill="#555">Used for: population trees, demographic inference, allele frequency queries</text>

  <rect x="580" y="880" width="470" height="32" rx="6" fill="#D4EDDA"/>
  <use href="#bolt" x="620" y="884" width="14" height="22"/>
  <text x="815" y="901" text-anchor="middle" font-size="13" fill="#1B9E77" font-weight="bold">46 s (TreeMix export, same dataset) -- 1.6x</text>
</svg>
