<svg xmlns="http://www.w3.org/2000/svg" viewBox="0 0 1050 950" font-family="Arial, Helvetica, sans-serif">
  <defs>
    <marker id="arrow" viewBox="0 0 10 10" refX="9" refY="5" markerWidth="6" markerHeight="6" orient="auto">
      <path d="M 0 0 L 10 5 L 0 10 z" fill="#666"/>
    </marker>
    <marker id="purplearrow" viewBox="0 0 10 10" refX="9" refY="5" markerWidth="6" markerHeight="6" orient="auto">
      <path d="M 0 0 L 10 5 L 0 10 z" fill="#7570B3"/>
    </marker>
    <marker id="greenarrow" viewBox="0 0 10 10" refX="9" refY="5" markerWidth="6" markerHeight="6" orient="auto">
      <path d="M 0 0 L 10 5 L 0 10 z" fill="#1B9E77"/>
    </marker>
    <!-- Checkmark -->
    <symbol id="check" viewBox="0 0 24 24">
      <circle cx="12" cy="12" r="11" fill="#1B9E77"/>
      <path d="M6,12 L10,16 L18,8" stroke="#fff" stroke-width="2.5" fill="none" stroke-linecap="round" stroke-linejoin="round"/>
    </symbol>
    <!-- Magnifying glass (inspect) -->
    <symbol id="magnify" viewBox="0 0 24 24">
      <circle cx="10" cy="10" r="7" fill="none" stroke="#7570B3" stroke-width="2.5"/>
      <line x1="15" y1="15" x2="22" y2="22" stroke="#7570B3" stroke-width="2.5" stroke-linecap="round"/>
    </symbol>
    <!-- Person icon -->
    <symbol id="person" viewBox="0 0 20 28">
      <circle cx="10" cy="6" r="5" fill="#E6AB02"/>
      <path d="M2,28 L2,18 Q2,12 10,12 Q18,12 18,18 L18,28" fill="#E6AB02"/>
    </symbol>
    <!-- Lightning bolt -->
    <symbol id="bolt" viewBox="0 0 20 30">
      <polygon points="12,0 4,14 10,14 8,30 16,16 10,16" fill="#E6AB02"/>
    </symbol>
  </defs>

  <!-- ================================================================ -->
  <!-- TITLE                                                            -->
  <!-- ================================================================ -->
  <text x="525" y="32" text-anchor="middle" font-size="22" font-weight="bold" fill="#333">Why FULL PATH? Unpacking Individual Genotypes</text>
  <text x="525" y="54" text-anchor="middle" font-size="13" fill="#888">Some analyses need every sample's genotype call, not just population summaries</text>

  <!-- ================================================================ -->
  <!-- SECTION A: UNPACKING gt_packed                                   -->
  <!-- ================================================================ -->
  <text x="30" y="90" font-size="16" font-weight="bold" fill="#7570B3">A</text>
  <text x="48" y="90" font-size="14" font-weight="bold" fill="#333">Unpacking: From Packed Bytes to Individual Genotypes</text>

  <rect x="30" y="105" width="990" height="200" rx="14" fill="#F5F0FA" stroke="#7570B3" stroke-width="2.5"/>

  <!-- Step 1: The packed byte -->
  <text x="60" y="130" font-size="11" font-weight="bold" fill="#7570B3">Step 1: Read one byte from gt_packed</text>

  <rect x="60" y="140" width="180" height="45" rx="6" fill="#7570B3" stroke="#fff" stroke-width="1"/>
  <text x="150" y="160" text-anchor="middle" font-size="10" fill="#fff" font-weight="bold">Byte value: 0x64 (100)</text>
  <text x="150" y="176" text-anchor="middle" font-size="9" fill="#ddd">Binary: 01 10 00 00</text>

  <!-- Arrow -->
  <path d="M 245 162 L 280 162" stroke="#7570B3" stroke-width="2" marker-end="url(#purplearrow)" fill="none"/>

  <!-- Step 2: Extract 2-bit pairs -->
  <text x="295" y="130" font-size="11" font-weight="bold" fill="#7570B3">Step 2: Extract 2-bit pairs (LSB-first)</text>

  <!-- Bit pair boxes -->
  <rect x="295" y="140" width="70" height="45" rx="5" fill="#377EB8" stroke="#fff"/>
  <text x="330" y="158" text-anchor="middle" font-size="9" fill="#fff" font-weight="bold">bits 0-1</text>
  <text x="330" y="174" text-anchor="middle" font-size="12" fill="#fff" font-weight="bold">00</text>

  <rect x="370" y="140" width="70" height="45" rx="5" fill="#E7298A" stroke="#fff"/>
  <text x="405" y="158" text-anchor="middle" font-size="9" fill="#fff" font-weight="bold">bits 2-3</text>
  <text x="405" y="174" text-anchor="middle" font-size="12" fill="#fff" font-weight="bold">00</text>

  <rect x="445" y="140" width="70" height="45" rx="5" fill="#D95F02" stroke="#fff"/>
  <text x="480" y="158" text-anchor="middle" font-size="9" fill="#fff" font-weight="bold">bits 4-5</text>
  <text x="480" y="174" text-anchor="middle" font-size="12" fill="#fff" font-weight="bold">10</text>

  <rect x="520" y="140" width="70" height="45" rx="5" fill="#E7298A" stroke="#fff"/>
  <text x="555" y="158" text-anchor="middle" font-size="9" fill="#fff" font-weight="bold">bits 6-7</text>
  <text x="555" y="174" text-anchor="middle" font-size="12" fill="#fff" font-weight="bold">01</text>

  <!-- Arrow -->
  <path d="M 595 162 L 630 162" stroke="#7570B3" stroke-width="2" marker-end="url(#purplearrow)" fill="none"/>

  <!-- Step 3: Decode to genotypes -->
  <text x="645" y="130" font-size="11" font-weight="bold" fill="#7570B3">Step 3: Decode genotypes</text>

  <rect x="645" y="140" width="80" height="45" rx="5" fill="#377EB8" stroke="#fff"/>
  <text x="685" y="155" text-anchor="middle" font-size="8" fill="#fff">Sample 4k</text>
  <text x="685" y="174" text-anchor="middle" font-size="13" fill="#fff" font-weight="bold">0/0</text>

  <rect x="730" y="140" width="80" height="45" rx="5" fill="#377EB8" stroke="#fff"/>
  <text x="770" y="155" text-anchor="middle" font-size="8" fill="#fff">Sample 4k+1</text>
  <text x="770" y="174" text-anchor="middle" font-size="13" fill="#fff" font-weight="bold">0/0</text>

  <rect x="815" y="140" width="80" height="45" rx="5" fill="#D95F02" stroke="#fff"/>
  <text x="855" y="155" text-anchor="middle" font-size="8" fill="#fff">Sample 4k+2</text>
  <text x="855" y="174" text-anchor="middle" font-size="13" fill="#fff" font-weight="bold">1/1</text>

  <rect x="900" y="140" width="80" height="45" rx="5" fill="#E7298A" stroke="#fff"/>
  <text x="940" y="155" text-anchor="middle" font-size="8" fill="#fff">Sample 4k+3</text>
  <text x="940" y="174" text-anchor="middle" font-size="13" fill="#fff" font-weight="bold">0/1</text>

  <!-- Encoding legend -->
  <text x="60" y="210" font-size="10" font-weight="bold" fill="#555">2-bit encoding (cyvcf2 remap):</text>
  <rect x="270" y="198" width="16" height="16" rx="3" fill="#377EB8"/>
  <text x="292" y="211" font-size="9" fill="#555">00 = HomRef (0/0)</text>
  <rect x="410" y="198" width="16" height="16" rx="3" fill="#E7298A"/>
  <text x="432" y="211" font-size="9" fill="#555">01 = Het (0/1)</text>
  <rect x="540" y="198" width="16" height="16" rx="3" fill="#D95F02"/>
  <text x="562" y="211" font-size="9" fill="#555">10 = HomAlt (1/1)</text>
  <rect x="680" y="198" width="16" height="16" rx="3" fill="#999"/>
  <text x="702" y="211" font-size="9" fill="#555">11 = Missing (./.)</text>

  <!-- Phase from phase_packed -->
  <rect x="60" y="225" width="920" height="40" rx="6" fill="#E8DCF5" stroke="#7570B3" stroke-width="1"/>
  <text x="70" y="245" font-size="10" fill="#7570B3" font-weight="bold">+ phase_packed:</text>
  <text x="195" y="245" font-size="10" fill="#555">1 bit per sample (0 = unphased, 1 = phased).</text>
  <text x="520" y="245" font-size="10" fill="#555">Combined: Het + phased</text>
  <text x="700" y="245" font-size="10" fill="#7570B3" font-weight="bold">0|1</text>
  <text x="740" y="245" font-size="10" fill="#555">Het + unphased</text>
  <text x="865" y="245" font-size="10" fill="#7570B3" font-weight="bold">0/1</text>
  <text x="60" y="258" font-size="9" fill="#888">Phase bit at het site: 1 = ALT on second haplotype (REF|ALT = 0|1), 0 = ALT on first haplotype (ALT|REF = 1|0)</text>

  <!-- Repeat annotation -->
  <text x="525" y="295" text-anchor="middle" font-size="10" fill="#7570B3" font-weight="bold">Repeat for ALL N samples x ALL M variants (e.g., 3,202 x 1,070,000 = 3.4 billion genotype calls)</text>

  <!-- ================================================================ -->
  <!-- SECTION B: SAME GENOTYPES, DIFFERENT FORMATS                     -->
  <!-- ================================================================ -->
  <text x="30" y="335" font-size="16" font-weight="bold" fill="#7570B3">B</text>
  <text x="48" y="335" font-size="14" font-weight="bold" fill="#333">Same 8 Genotypes, 5 Different Output Formats</text>

  <rect x="30" y="350" width="990" height="235" rx="14" fill="#FAFAFA" stroke="#ddd" stroke-width="1.5"/>

  <!-- Source genotypes row -->
  <text x="50" y="375" font-size="10" font-weight="bold" fill="#333">Unpacked:</text>

  <!-- 8 sample genotype boxes -->
  <rect x="145" y="360" width="55" height="28" rx="4" fill="#377EB8"/>
  <text x="173" y="378" text-anchor="middle" font-size="10" fill="#fff" font-weight="bold">0|0</text>
  <rect x="205" y="360" width="55" height="28" rx="4" fill="#E7298A"/>
  <text x="233" y="378" text-anchor="middle" font-size="10" fill="#fff" font-weight="bold">0|1</text>
  <rect x="265" y="360" width="55" height="28" rx="4" fill="#D95F02"/>
  <text x="293" y="378" text-anchor="middle" font-size="10" fill="#fff" font-weight="bold">1|1</text>
  <rect x="325" y="360" width="55" height="28" rx="4" fill="#377EB8"/>
  <text x="353" y="378" text-anchor="middle" font-size="10" fill="#fff" font-weight="bold">0|0</text>
  <rect x="385" y="360" width="55" height="28" rx="4" fill="#999"/>
  <text x="413" y="378" text-anchor="middle" font-size="10" fill="#fff" font-weight="bold">.|.</text>
  <rect x="445" y="360" width="55" height="28" rx="4" fill="#E7298A"/>
  <text x="473" y="378" text-anchor="middle" font-size="10" fill="#fff" font-weight="bold">1|0</text>
  <rect x="505" y="360" width="55" height="28" rx="4" fill="#377EB8"/>
  <text x="533" y="378" text-anchor="middle" font-size="10" fill="#fff" font-weight="bold">0|0</text>
  <rect x="565" y="360" width="55" height="28" rx="4" fill="#D95F02"/>
  <text x="593" y="378" text-anchor="middle" font-size="10" fill="#fff" font-weight="bold">1|1</text>

  <text x="145" y="402" font-size="8" fill="#888">S1</text>
  <text x="211" y="402" font-size="8" fill="#888">S2</text>
  <text x="275" y="402" font-size="8" fill="#888">S3</text>
  <text x="335" y="402" font-size="8" fill="#888">S4</text>
  <text x="395" y="402" font-size="8" fill="#888">S5</text>
  <text x="455" y="402" font-size="8" fill="#888">S6</text>
  <text x="515" y="402" font-size="8" fill="#888">S7</text>
  <text x="575" y="402" font-size="8" fill="#888">S8</text>

  <!-- Fanning arrows down to 5 formats -->
  <line x1="370" y1="405" x2="160" y2="425" stroke="#7570B3" stroke-width="1" marker-end="url(#purplearrow)"/>
  <line x1="370" y1="405" x2="340" y2="425" stroke="#7570B3" stroke-width="1" marker-end="url(#purplearrow)"/>
  <line x1="370" y1="405" x2="520" y2="425" stroke="#7570B3" stroke-width="1" marker-end="url(#purplearrow)"/>
  <line x1="370" y1="405" x2="700" y2="425" stroke="#7570B3" stroke-width="1" marker-end="url(#purplearrow)"/>
  <line x1="370" y1="405" x2="880" y2="425" stroke="#7570B3" stroke-width="1" marker-end="url(#purplearrow)"/>

  <!-- FORMAT 1: VCF -->
  <rect x="50" y="428" width="220" height="65" rx="8" fill="#fff" stroke="#7570B3" stroke-width="2"/>
  <text x="160" y="446" text-anchor="middle" font-size="11" font-weight="bold" fill="#7570B3">VCF</text>
  <text x="160" y="462" text-anchor="middle" font-size="8" fill="#555" font-family="monospace">GT field in FORMAT column</text>
  <text x="160" y="480" text-anchor="middle" font-size="10" fill="#333" font-family="monospace" font-weight="bold">0|0 0|1 1|1 0|0 .|. 1|0 0|0 1|1</text>

  <!-- FORMAT 2: PLINK 1.9 BED -->
  <rect x="280" y="428" width="220" height="65" rx="8" fill="#fff" stroke="#D95F02" stroke-width="2"/>
  <text x="390" y="446" text-anchor="middle" font-size="11" font-weight="bold" fill="#D95F02">PLINK 1.9 (.bed)</text>
  <text x="390" y="462" text-anchor="middle" font-size="8" fill="#555" font-family="monospace">2-bit, different encoding!</text>
  <text x="390" y="480" text-anchor="middle" font-size="10" fill="#333" font-family="monospace" font-weight="bold">00 10 11 00 01 10 00 11</text>

  <!-- FORMAT 3: EIGENSTRAT -->
  <rect x="510" y="428" width="220" height="65" rx="8" fill="#fff" stroke="#66A61E" stroke-width="2"/>
  <text x="620" y="446" text-anchor="middle" font-size="11" font-weight="bold" fill="#66A61E">EIGENSTRAT (.geno)</text>
  <text x="620" y="462" text-anchor="middle" font-size="8" fill="#555" font-family="monospace">Alt allele count per sample</text>
  <text x="620" y="480" text-anchor="middle" font-size="10" fill="#333" font-family="monospace" font-weight="bold">0  1  2  0  9  1  0  2</text>

  <!-- FORMAT 4: Beagle -->
  <rect x="740" y="428" width="260" height="65" rx="8" fill="#fff" stroke="#E7298A" stroke-width="2"/>
  <text x="870" y="446" text-anchor="middle" font-size="11" font-weight="bold" fill="#E7298A">Beagle</text>
  <text x="870" y="462" text-anchor="middle" font-size="8" fill="#555" font-family="monospace">Allele pairs, space-delimited</text>
  <text x="870" y="480" text-anchor="middle" font-size="10" fill="#333" font-family="monospace" font-weight="bold">G G  G A  A A  G G  ? ?  A G  G G  A A</text>

  <!-- PLINK encoding note -->
  <rect x="280" y="500" width="220" height="30" rx="5" fill="#FFF3E0" stroke="#D95F02" stroke-width="1"/>
  <text x="390" y="515" text-anchor="middle" font-size="8" fill="#D95F02">PLINK BED: 00=HomRef, 01=Missing,</text>
  <text x="390" y="525" text-anchor="middle" font-size="8" fill="#D95F02">10=Het, 11=HomAlt (NOT same as GraphMana!)</text>

  <!-- Key point -->
  <text x="525" y="560" text-anchor="middle" font-size="11" fill="#7570B3" font-weight="bold">Each format has its own encoding. FULL PATH translates once from the canonical graph representation.</text>

  <!-- ================================================================ -->
  <!-- SECTION C: WHY FULL PATH IS ESSENTIAL                            -->
  <!-- ================================================================ -->
  <text x="30" y="600" font-size="16" font-weight="bold" fill="#7570B3">C</text>
  <text x="48" y="600" font-size="14" font-weight="bold" fill="#333">Analyses That Require Individual Genotypes (FULL PATH Only)</text>

  <rect x="30" y="615" width="990" height="145" rx="12" fill="#F5F0FA" stroke="#7570B3" stroke-width="2"/>

  <!-- Analysis cards -->
  <!-- PCA -->
  <rect x="50" y="635" width="145" height="70" rx="8" fill="#fff" stroke="#7570B3" stroke-width="1.5"/>
  <text x="123" y="655" text-anchor="middle" font-size="11" font-weight="bold" fill="#7570B3">PCA / Admixture</text>
  <text x="123" y="670" text-anchor="middle" font-size="8" fill="#666">Covariance matrix from</text>
  <text x="123" y="682" text-anchor="middle" font-size="8" fill="#666">individual genotypes</text>
  <use href="#magnify" x="55" y="685" width="14" height="14"/>
  <text x="75" y="696" font-size="7" fill="#7570B3">N x N matrix</text>

  <!-- GWAS -->
  <rect x="210" y="635" width="145" height="70" rx="8" fill="#fff" stroke="#7570B3" stroke-width="1.5"/>
  <text x="283" y="655" text-anchor="middle" font-size="11" font-weight="bold" fill="#7570B3">GWAS</text>
  <text x="283" y="670" text-anchor="middle" font-size="8" fill="#666">Test each variant against</text>
  <text x="283" y="682" text-anchor="middle" font-size="8" fill="#666">each sample's phenotype</text>
  <use href="#person" x="215" y="688" width="12" height="17"/>
  <text x="233" y="700" font-size="7" fill="#7570B3">per-sample</text>

  <!-- Phasing -->
  <rect x="370" y="635" width="145" height="70" rx="8" fill="#fff" stroke="#7570B3" stroke-width="1.5"/>
  <text x="443" y="655" text-anchor="middle" font-size="11" font-weight="bold" fill="#7570B3">Phasing</text>
  <text x="443" y="670" text-anchor="middle" font-size="8" fill="#666">Resolve haplotypes using</text>
  <text x="443" y="682" text-anchor="middle" font-size="8" fill="#666">LD across individuals</text>
  <text x="443" y="700" text-anchor="middle" font-size="7" fill="#7570B3">needs phased GT (0|1)</text>

  <!-- Imputation -->
  <rect x="530" y="635" width="145" height="70" rx="8" fill="#fff" stroke="#7570B3" stroke-width="1.5"/>
  <text x="603" y="655" text-anchor="middle" font-size="11" font-weight="bold" fill="#7570B3">Imputation</text>
  <text x="603" y="670" text-anchor="middle" font-size="8" fill="#666">Fill missing genotypes</text>
  <text x="603" y="682" text-anchor="middle" font-size="8" fill="#666">from reference haplotypes</text>
  <text x="603" y="700" text-anchor="middle" font-size="7" fill="#7570B3">needs every GT + phase</text>

  <!-- Relatedness -->
  <rect x="690" y="635" width="145" height="70" rx="8" fill="#fff" stroke="#7570B3" stroke-width="1.5"/>
  <text x="763" y="655" text-anchor="middle" font-size="11" font-weight="bold" fill="#7570B3">Relatedness / IBD</text>
  <text x="763" y="670" text-anchor="middle" font-size="8" fill="#666">Pairwise allele sharing</text>
  <text x="763" y="682" text-anchor="middle" font-size="8" fill="#666">between individuals</text>
  <use href="#person" x="695" y="688" width="12" height="17"/>
  <use href="#person" x="712" y="688" width="12" height="17"/>
  <text x="732" y="700" font-size="7" fill="#7570B3">pairwise</text>

  <!-- QC -->
  <rect x="850" y="635" width="145" height="70" rx="8" fill="#fff" stroke="#7570B3" stroke-width="1.5"/>
  <text x="923" y="655" text-anchor="middle" font-size="11" font-weight="bold" fill="#7570B3">Sample QC</text>
  <text x="923" y="670" text-anchor="middle" font-size="8" fill="#666">Heterozygosity, call rate,</text>
  <text x="923" y="682" text-anchor="middle" font-size="8" fill="#666">Ti/Tv per individual</text>
  <use href="#person" x="855" y="688" width="12" height="17"/>
  <text x="873" y="700" font-size="7" fill="#7570B3">per-sample stats</text>

  <!-- Common thread -->
  <text x="525" y="745" text-anchor="middle" font-size="11" fill="#7570B3" font-weight="bold">Common thread: all need to see which alleles each individual carries at each site</text>

  <!-- ================================================================ -->
  <!-- SECTION D: COMPLEMENTARY PATHS                                   -->
  <!-- ================================================================ -->
  <text x="30" y="785" font-size="16" font-weight="bold" fill="#7570B3">D</text>
  <text x="48" y="785" font-size="14" font-weight="bold" fill="#333">Two Paths, One Database: Complementary, Not Competing</text>

  <rect x="30" y="800" width="990" height="135" rx="12" fill="#FAFAFA" stroke="#ddd" stroke-width="1.5"/>

  <!-- FAST PATH summary (left) -->
  <rect x="50" y="815" width="440" height="105" rx="10" fill="#F0FAF0" stroke="#1B9E77" stroke-width="2"/>
  <text x="270" y="838" text-anchor="middle" font-size="13" font-weight="bold" fill="#1B9E77">FAST PATH   (O(K) per variant)</text>

  <text x="70" y="858" font-size="10" fill="#555">Reads:</text>
  <text x="120" y="858" font-size="10" fill="#1B9E77" font-weight="bold">ac[], an[], af[]</text>
  <text x="280" y="858" font-size="10" fill="#555">(K values, K = populations)</text>

  <text x="70" y="878" font-size="10" fill="#555">Skips:</text>
  <text x="120" y="878" font-size="10" fill="#999">gt_packed, phase_packed</text>

  <text x="70" y="898" font-size="10" fill="#555">For:</text>
  <text x="120" y="898" font-size="10" fill="#1B9E77" font-weight="bold">TreeMix, SFS, BED, freq queries</text>

  <use href="#bolt" x="430" y="855" width="16" height="24"/>
  <text x="455" y="873" font-size="10" fill="#E6AB02" font-weight="bold">0.6 s</text>

  <!-- FULL PATH summary (right) -->
  <rect x="530" y="815" width="470" height="105" rx="10" fill="#F5F0FA" stroke="#7570B3" stroke-width="2"/>
  <text x="765" y="838" text-anchor="middle" font-size="13" font-weight="bold" fill="#7570B3">FULL PATH   (O(N) per variant)</text>

  <text x="550" y="858" font-size="10" fill="#555">Reads:</text>
  <text x="600" y="858" font-size="10" fill="#7570B3" font-weight="bold">gt_packed, phase_packed</text>
  <text x="790" y="858" font-size="10" fill="#555">(N values, N = samples)</text>

  <text x="550" y="878" font-size="10" fill="#555">Unpacks:</text>
  <text x="610" y="878" font-size="10" fill="#7570B3">2-bit genotype + 1-bit phase per sample</text>

  <text x="550" y="898" font-size="10" fill="#555">For:</text>
  <text x="600" y="898" font-size="10" fill="#7570B3" font-weight="bold">VCF, PLINK, EIGENSTRAT, Beagle, STRUCTURE, +8 more</text>

  <use href="#magnify" x="940" y="855" width="16" height="16"/>
  <text x="960" y="873" font-size="10" fill="#7570B3" font-weight="bold">42 s</text>

  <!-- Connecting phrase -->
  <text x="510" y="870" text-anchor="middle" font-size="16" fill="#E6AB02" font-weight="bold">+</text>

  <!-- Bottom summary -->
  <text x="525" y="945" text-anchor="middle" font-size="12" fill="#333" font-weight="bold">GraphMana chooses the right path automatically based on the requested export format.</text>
</svg>
