<svg xmlns="http://www.w3.org/2000/svg" viewBox="0 0 1100 1650" font-family="Arial, Helvetica, sans-serif">
  <defs>
    <marker id="arrow" viewBox="0 0 10 10" refX="9" refY="5" markerWidth="6" markerHeight="6" orient="auto">
      <path d="M 0 0 L 10 5 L 0 10 z" fill="#666"/>
    </marker>
    <marker id="greenarrow" viewBox="0 0 10 10" refX="9" refY="5" markerWidth="6" markerHeight="6" orient="auto">
      <path d="M 0 0 L 10 5 L 0 10 z" fill="#1B9E77"/>
    </marker>
    <marker id="bluearrow" viewBox="0 0 10 10" refX="9" refY="5" markerWidth="6" markerHeight="6" orient="auto">
      <path d="M 0 0 L 10 5 L 0 10 z" fill="#377EB8"/>
    </marker>
    <!-- Checkmark -->
    <symbol id="check" viewBox="0 0 24 24">
      <circle cx="12" cy="12" r="11" fill="#1B9E77"/>
      <path d="M6,12 L10,16 L18,8" stroke="#fff" stroke-width="2.5" fill="none" stroke-linecap="round" stroke-linejoin="round"/>
    </symbol>
    <!-- Lightning bolt -->
    <symbol id="bolt" viewBox="0 0 20 30">
      <polygon points="12,0 4,14 10,14 8,30 16,16 10,16" fill="#E6AB02"/>
    </symbol>
    <!-- Clock -->
    <symbol id="clock" viewBox="0 0 24 24">
      <circle cx="12" cy="12" r="10" fill="#1B9E77" stroke="#fff" stroke-width="1"/>
      <line x1="12" y1="5" x2="12" y2="12" stroke="#fff" stroke-width="2" stroke-linecap="round"/>
      <line x1="12" y1="12" x2="17" y2="15" stroke="#fff" stroke-width="2" stroke-linecap="round"/>
    </symbol>
    <!-- File icon -->
    <symbol id="file" viewBox="0 0 30 38">
      <path d="M0,0 L20,0 L30,10 L30,38 L0,38 Z" fill="#66C2A5" stroke="#fff" stroke-width="0.8"/>
      <path d="M20,0 L20,10 L30,10" fill="#4DAF4A" stroke="#fff" stroke-width="0.5"/>
    </symbol>
    <!-- Graph DB icon -->
    <symbol id="graphdb" viewBox="0 0 40 40">
      <circle cx="20" cy="8" r="6" fill="#377EB8" stroke="#fff" stroke-width="1"/>
      <circle cx="8" cy="28" r="6" fill="#E7298A" stroke="#fff" stroke-width="1"/>
      <circle cx="32" cy="28" r="6" fill="#66A61E" stroke="#fff" stroke-width="1"/>
      <line x1="16" y1="13" x2="11" y2="23" stroke="#999" stroke-width="1.5"/>
      <line x1="24" y1="13" x2="29" y2="23" stroke="#999" stroke-width="1.5"/>
      <line x1="14" y1="28" x2="26" y2="28" stroke="#999" stroke-width="1.5"/>
    </symbol>
    <!-- Person -->
    <symbol id="person" viewBox="0 0 20 28">
      <circle cx="10" cy="6" r="5" fill="#E6AB02"/>
      <path d="M2,28 L2,18 Q2,12 10,12 Q18,12 18,18 L18,28" fill="#E6AB02"/>
    </symbol>
    <!-- Manifest icon -->
    <symbol id="manifest" viewBox="0 0 22 28">
      <rect x="3" y="0" width="19" height="28" rx="2" fill="#E6AB02" stroke="#fff" stroke-width="0.5"/>
      <rect x="6" y="0" width="10" height="5" rx="1.5" fill="#D4990B"/>
      <line x1="7" y1="10" x2="18" y2="10" stroke="#fff" stroke-width="1"/>
      <line x1="7" y1="15" x2="18" y2="15" stroke="#fff" stroke-width="1"/>
      <line x1="7" y1="20" x2="14" y2="20" stroke="#fff" stroke-width="1"/>
    </symbol>
  </defs>

  <!-- ================================================================ -->
  <!-- TITLE                                                            -->
  <!-- ================================================================ -->
  <text x="550" y="30" text-anchor="middle" font-size="22" font-weight="bold" fill="#333">The Same Year with GraphMana</text>
  <text x="550" y="52" text-anchor="middle" font-size="13" fill="#1B9E77">Import once, add incrementally, export any format on demand with full provenance</text>

  <!-- Timeline line (central spine) -->
  <line x1="100" y1="75" x2="100" y2="1580" stroke="#1B9E77" stroke-width="3" opacity="0.3"/>

  <!-- ================================================================ -->
  <!-- PHASE 1: INITIAL IMPORT                                          -->
  <!-- ================================================================ -->
  <rect x="30" y="75" width="140" height="28" rx="14" fill="#377EB8"/>
  <text x="100" y="94" text-anchor="middle" font-size="11" fill="#fff" font-weight="bold">Phase 1: First Import</text>

  <!-- Step 1: Import -->
  <circle cx="100" cy="130" r="12" fill="#377EB8" stroke="#fff" stroke-width="2"/>
  <text x="100" y="134" text-anchor="middle" font-size="9" fill="#fff" font-weight="bold">1</text>

  <rect x="140" y="110" width="530" height="48" rx="8" fill="#E8F4FD" stroke="#377EB8" stroke-width="1.5"/>
  <use href="#file" x="150" y="115" width="20" height="26"/>
  <text x="180" y="130" font-size="11" fill="#377EB8" font-weight="bold">Import first batch with one command</text>
  <rect x="180" y="135" width="460" height="17" rx="3" fill="#D0E8F7"/>
  <text x="190" y="148" font-size="9" fill="#377EB8" font-family="monospace" font-weight="bold">graphmana ingest --input batch1.vcf.gz --population-map pops.tsv --filter-qual 30</text>

  <!-- What happens automatically -->
  <rect x="140" y="166" width="530" height="85" rx="8" fill="#F0FAF0" stroke="#1B9E77" stroke-width="1"/>
  <use href="#check" x="148" y="172" width="16" height="16"/>
  <text x="172" y="185" font-size="10" fill="#1B9E77" font-weight="bold">All of this happens automatically during import:</text>

  <text x="172" y="203" font-size="9" fill="#555">&#x2022; Filters applied (QUAL, depth, MAF, biallelic, regions) per your flags</text>
  <text x="172" y="217" font-size="9" fill="#555">&#x2022; Genotypes packed into byte arrays (2 bits/sample)</text>
  <text x="172" y="231" font-size="9" fill="#555">&#x2022; Population stats pre-computed (ac[], an[], af[] per population)</text>
  <text x="172" y="245" font-size="9" fill="#555">&#x2022; Graph built: Variant, Sample, Population, Chromosome nodes + relationships</text>

  <!-- Time -->
  <use href="#clock" x="690" y="116" width="18" height="18"/>
  <text x="715" y="130" font-size="9" fill="#1B9E77" font-weight="bold">Minutes</text>
  <text x="715" y="143" font-size="8" fill="#888">(not weeks)</text>

  <!-- ================================================================ -->
  <!-- PHASE 2: ANNOTATE                                                -->
  <!-- ================================================================ -->
  <rect x="30" y="275" width="140" height="28" rx="14" fill="#E7298A"/>
  <text x="100" y="294" text-anchor="middle" font-size="11" fill="#fff" font-weight="bold">Phase 2: Annotate</text>

  <circle cx="100" cy="330" r="12" fill="#E7298A" stroke="#fff" stroke-width="2"/>
  <text x="100" y="334" text-anchor="middle" font-size="9" fill="#fff" font-weight="bold">2</text>

  <rect x="140" y="312" width="530" height="45" rx="8" fill="#FCE4EC" stroke="#E7298A" stroke-width="1.5"/>
  <text x="155" y="330" font-size="11" fill="#E7298A" font-weight="bold">Add annotations in-place</text>
  <rect x="155" y="336" width="490" height="15" rx="3" fill="#F8D7E3"/>
  <text x="165" y="348" font-size="9" fill="#E7298A" font-family="monospace" font-weight="bold">graphmana annotate --type vep --input vep_output.tsv --version ClinVar_2024Q1</text>

  <use href="#check" x="148" y="362" width="16" height="16"/>
  <text x="172" y="375" font-size="9" fill="#1B9E77">Annotations stored as graph edges with version tracking. Original data untouched.</text>

  <use href="#clock" x="690" y="318" width="18" height="18"/>
  <text x="715" y="332" font-size="9" fill="#1B9E77" font-weight="bold">Seconds</text>

  <!-- ================================================================ -->
  <!-- PHASE 3: EXPORT ON DEMAND                                        -->
  <!-- ================================================================ -->
  <rect x="30" y="400" width="140" height="28" rx="14" fill="#D95F02"/>
  <text x="100" y="419" text-anchor="middle" font-size="11" fill="#fff" font-weight="bold">Phase 3: Export</text>

  <circle cx="100" cy="455" r="12" fill="#D95F02" stroke="#fff" stroke-width="2"/>
  <text x="100" y="459" text-anchor="middle" font-size="9" fill="#fff" font-weight="bold">3</text>

  <rect x="140" y="435" width="530" height="175" rx="8" fill="#FFF3E0" stroke="#D95F02" stroke-width="1.5"/>
  <text x="155" y="455" font-size="11" fill="#D95F02" font-weight="bold">Export any format with one command (no scripts needed)</text>

  <!-- Command examples -->
  <rect x="155" y="462" width="490" height="15" rx="3" fill="#FFE8CC"/>
  <text x="165" y="474" font-size="8" fill="#D95F02" font-family="monospace" font-weight="bold">graphmana export --format treemix --filter-population AFR,EUR,EAS -o study.treemix.gz</text>
  <use href="#bolt" x="650" y="460" width="12" height="18"/>
  <text x="665" y="474" font-size="8" fill="#E6AB02" font-weight="bold">0.6s</text>

  <rect x="155" y="482" width="490" height="15" rx="3" fill="#FFE8CC"/>
  <text x="165" y="494" font-size="8" fill="#D95F02" font-family="monospace" font-weight="bold">graphmana export --format plink --filter-maf 0.05 --filter-biallelic -o study</text>
  <text x="665" y="494" font-size="8" fill="#888">42s</text>

  <rect x="155" y="502" width="490" height="15" rx="3" fill="#FFE8CC"/>
  <text x="165" y="514" font-size="8" fill="#D95F02" font-family="monospace" font-weight="bold">graphmana export --format sfs-dadi --sfs-populations AFR,EUR --sfs-polarized -o afr_eur.fs</text>
  <use href="#bolt" x="650" y="500" width="12" height="18"/>
  <text x="665" y="514" font-size="8" fill="#E6AB02" font-weight="bold">0.8s</text>

  <rect x="155" y="522" width="490" height="15" rx="3" fill="#FFE8CC"/>
  <text x="165" y="534" font-size="8" fill="#D95F02" font-family="monospace" font-weight="bold">graphmana export --format eigenstrat --filter-consequence missense_variant -o study</text>
  <text x="665" y="534" font-size="8" fill="#888">38s</text>

  <!-- Manifest auto-generated -->
  <use href="#manifest" x="155" y="545" width="18" height="22"/>
  <text x="180" y="558" font-size="9" fill="#E6AB02" font-weight="bold">Every export auto-generates a .manifest.json:</text>
  <text x="180" y="572" font-size="8" fill="#555">records samples, filters, parameters, timestamp, GraphMana version, database state</text>

  <!-- Format count -->
  <rect x="155" y="582" width="62" height="18" rx="3" fill="#1B9E77"/>
  <text x="186" y="595" text-anchor="middle" font-size="7" fill="#fff" font-weight="bold">TreeMix</text>
  <rect x="222" y="582" width="45" height="18" rx="3" fill="#1B9E77"/>
  <text x="245" y="595" text-anchor="middle" font-size="7" fill="#fff" font-weight="bold">SFS</text>
  <rect x="272" y="582" width="45" height="18" rx="3" fill="#1B9E77"/>
  <text x="295" y="595" text-anchor="middle" font-size="7" fill="#fff" font-weight="bold">BED</text>
  <rect x="322" y="582" width="50" height="18" rx="3" fill="#7570B3"/>
  <text x="347" y="595" text-anchor="middle" font-size="7" fill="#fff" font-weight="bold">VCF</text>
  <rect x="377" y="582" width="55" height="18" rx="3" fill="#7570B3"/>
  <text x="405" y="595" text-anchor="middle" font-size="7" fill="#fff" font-weight="bold">PLINK</text>
  <rect x="437" y="582" width="75" height="18" rx="3" fill="#7570B3"/>
  <text x="475" y="595" text-anchor="middle" font-size="7" fill="#fff" font-weight="bold">EIGENSTRAT</text>
  <rect x="517" y="582" width="55" height="18" rx="3" fill="#7570B3"/>
  <text x="545" y="595" text-anchor="middle" font-size="7" fill="#fff" font-weight="bold">Beagle</text>
  <rect x="577" y="582" width="45" height="18" rx="3" fill="#9E9AC8" opacity="0.7"/>
  <text x="600" y="595" text-anchor="middle" font-size="7" fill="#fff" font-weight="bold">+10</text>

  <use href="#clock" x="690" y="441" width="18" height="18"/>
  <text x="715" y="455" font-size="9" fill="#1B9E77" font-weight="bold">Seconds</text>
  <text x="715" y="468" font-size="8" fill="#888">per export</text>

  <!-- ================================================================ -->
  <!-- PHASE 4: ANALYZE (same as before)                                -->
  <!-- ================================================================ -->
  <rect x="30" y="630" width="140" height="28" rx="14" fill="#66A61E"/>
  <text x="100" y="649" text-anchor="middle" font-size="11" fill="#fff" font-weight="bold">Phase 4: Analyze</text>

  <circle cx="100" cy="685" r="12" fill="#66A61E" stroke="#fff" stroke-width="2"/>
  <text x="100" y="689" text-anchor="middle" font-size="9" fill="#fff" font-weight="bold">4</text>

  <rect x="140" y="667" width="530" height="45" rx="8" fill="#F0F7E8" stroke="#66A61E" stroke-width="1.5"/>
  <text x="155" y="685" font-size="11" fill="#66A61E" font-weight="bold">Run analyses on exported files (same tools as before)</text>
  <text x="155" y="700" font-size="9" fill="#555">PCA, Fst, Admixture, TreeMix, demographic inference, selection scans...</text>

  <use href="#clock" x="690" y="673" width="18" height="18"/>
  <text x="715" y="687" font-size="9" fill="#1B9E77" font-weight="bold">Month 2-3</text>

  <!-- ================================================================ -->
  <!-- PHASE 5: NEW BATCH (the magic moment)                            -->
  <!-- ================================================================ -->
  <rect x="30" y="735" width="140" height="28" rx="14" fill="#1B9E77"/>
  <text x="100" y="754" text-anchor="middle" font-size="11" fill="#fff" font-weight="bold">Phase 5: New Batch!</text>

  <circle cx="100" cy="793" r="14" fill="#1B9E77" stroke="#fff" stroke-width="2.5"/>
  <text x="100" y="797" text-anchor="middle" font-size="9" fill="#fff" font-weight="bold">5</text>

  <rect x="140" y="773" width="530" height="48" rx="8" fill="#D4EDDA" stroke="#1B9E77" stroke-width="2.5"/>
  <use href="#file" x="150" y="778" width="20" height="26"/>
  <text x="178" y="793" font-size="12" fill="#1B9E77" font-weight="bold">Batch 2 arrives: 150 new samples</text>
  <rect x="178" y="799" width="470" height="15" rx="3" fill="#B8DFCB"/>
  <text x="188" y="811" font-size="9" fill="#1B9E77" font-family="monospace" font-weight="bold">graphmana ingest --input batch2.vcf.gz --mode incremental --population-map pops2.tsv</text>

  <!-- What's different -->
  <rect x="140" y="830" width="530" height="125" rx="8" fill="#F0FAF0" stroke="#1B9E77" stroke-width="1.5"/>

  <use href="#check" x="150" y="838" width="16" height="16"/>
  <text x="174" y="851" font-size="10" fill="#1B9E77" font-weight="bold">No re-merge.</text>
  <text x="290" y="851" font-size="10" fill="#555">New samples append to existing packed arrays.</text>

  <use href="#check" x="150" y="860" width="16" height="16"/>
  <text x="174" y="873" font-size="10" fill="#1B9E77" font-weight="bold">No re-filter.</text>
  <text x="286" y="873" font-size="10" fill="#555">Same filters applied to new data during import.</text>

  <use href="#check" x="150" y="882" width="16" height="16"/>
  <text x="174" y="895" font-size="10" fill="#1B9E77" font-weight="bold">No re-annotate.</text>
  <text x="310" y="895" font-size="10" fill="#555">Existing annotations remain. Annotate new variants only.</text>

  <use href="#check" x="150" y="904" width="16" height="16"/>
  <text x="174" y="917" font-size="10" fill="#1B9E77" font-weight="bold">No re-convert.</text>
  <text x="300" y="917" font-size="10" fill="#555">Re-export any format on demand (same one-line commands).</text>

  <use href="#check" x="150" y="926" width="16" height="16"/>
  <text x="174" y="939" font-size="10" fill="#1B9E77" font-weight="bold">Population stats auto-updated.</text>
  <text x="395" y="939" font-size="10" fill="#555">ac[], an[], af[] recomputed for new sample set.</text>

  <!-- Time comparison -->
  <use href="#clock" x="690" y="779" width="18" height="18"/>
  <text x="715" y="793" font-size="9" fill="#1B9E77" font-weight="bold">Minutes</text>
  <text x="715" y="806" font-size="8" fill="#888">(not 2-4 weeks)</text>

  <!-- Crossed out items from conventional -->
  <rect x="700" y="840" width="100" height="108" rx="6" fill="#FFEBEE" stroke="#E41A1C" stroke-width="1" opacity="0.8"/>
  <text x="750" y="856" text-anchor="middle" font-size="8" fill="#E41A1C" font-weight="bold">Eliminated:</text>
  <text x="750" y="872" text-anchor="middle" font-size="8" fill="#E41A1C" text-decoration="line-through">Re-merge</text>
  <text x="750" y="886" text-anchor="middle" font-size="8" fill="#E41A1C" text-decoration="line-through">Re-QC</text>
  <text x="750" y="900" text-anchor="middle" font-size="8" fill="#E41A1C" text-decoration="line-through">Re-filter</text>
  <text x="750" y="914" text-anchor="middle" font-size="8" fill="#E41A1C" text-decoration="line-through">Re-annotate</text>
  <text x="750" y="928" text-anchor="middle" font-size="8" fill="#E41A1C" text-decoration="line-through">Re-convert all</text>
  <text x="750" y="942" text-anchor="middle" font-size="8" fill="#E41A1C" text-decoration="line-through">Re-analyze all</text>

  <!-- ================================================================ -->
  <!-- PHASE 6: REQUESTS (easy now)                                     -->
  <!-- ================================================================ -->
  <rect x="30" y="980" width="140" height="28" rx="14" fill="#7570B3"/>
  <text x="100" y="999" text-anchor="middle" font-size="11" fill="#fff" font-weight="bold">Phase 6: Requests</text>

  <!-- Collaborator subset -->
  <circle cx="100" cy="1038" r="12" fill="#7570B3" stroke="#fff" stroke-width="2"/>
  <text x="100" y="1042" text-anchor="middle" font-size="8" fill="#fff" font-weight="bold">6</text>

  <rect x="140" y="1018" width="530" height="48" rx="8" fill="#F5F0FA" stroke="#7570B3" stroke-width="1.5"/>
  <text x="155" y="1036" font-size="10" fill="#7570B3" font-weight="bold">Collaborator wants African samples in PLINK</text>
  <rect x="155" y="1042" width="490" height="15" rx="3" fill="#E8DCF5"/>
  <text x="165" y="1054" font-size="8" fill="#7570B3" font-family="monospace" font-weight="bold">graphmana export --format plink --filter-population AFR --filter-biallelic -o afr_subset</text>

  <!-- Reviewer re-analysis -->
  <circle cx="100" cy="1092" r="12" fill="#7570B3" stroke="#fff" stroke-width="2"/>
  <text x="100" y="1096" text-anchor="middle" font-size="8" fill="#fff" font-weight="bold">7</text>

  <rect x="140" y="1072" width="530" height="48" rx="8" fill="#F5F0FA" stroke="#7570B3" stroke-width="1.5"/>
  <text x="155" y="1090" font-size="10" fill="#7570B3" font-weight="bold">Reviewer wants MAF &gt; 0.01 instead of 0.05</text>
  <rect x="155" y="1096" width="490" height="15" rx="3" fill="#E8DCF5"/>
  <text x="165" y="1108" font-size="8" fill="#7570B3" font-family="monospace" font-weight="bold">graphmana export --format plink --filter-maf 0.01 -o study_maf01     # change one flag</text>

  <!-- Annotation update -->
  <circle cx="100" cy="1146" r="12" fill="#7570B3" stroke="#fff" stroke-width="2"/>
  <text x="100" y="1150" text-anchor="middle" font-size="8" fill="#fff" font-weight="bold">8</text>

  <rect x="140" y="1126" width="530" height="48" rx="8" fill="#F5F0FA" stroke="#7570B3" stroke-width="1.5"/>
  <text x="155" y="1144" font-size="10" fill="#7570B3" font-weight="bold">New ClinVar release</text>
  <rect x="155" y="1150" width="490" height="15" rx="3" fill="#E8DCF5"/>
  <text x="165" y="1162" font-size="8" fill="#7570B3" font-family="monospace" font-weight="bold">graphmana annotate --type clinvar --input clinvar_2024Q2.tsv --mode update --version Q2</text>

  <use href="#check" x="670" y="1028" width="14" height="14"/>
  <text x="690" y="1040" font-size="8" fill="#1B9E77">42s + manifest</text>
  <use href="#check" x="670" y="1082" width="14" height="14"/>
  <text x="690" y="1094" font-size="8" fill="#1B9E77">42s + manifest</text>
  <use href="#bolt" x="670" y="1136" width="14" height="18"/>
  <text x="690" y="1148" font-size="8" fill="#1B9E77">0.8s in-place</text>

  <!-- Batches 3-5 -->
  <circle cx="100" cy="1200" r="12" fill="#7570B3" stroke="#fff" stroke-width="2"/>
  <text x="100" y="1204" text-anchor="middle" font-size="8" fill="#fff" font-weight="bold">9</text>

  <rect x="140" y="1180" width="530" height="48" rx="8" fill="#F5F0FA" stroke="#7570B3" stroke-width="1.5"/>
  <text x="155" y="1198" font-size="10" fill="#7570B3" font-weight="bold">Batches 3, 4, 5 arrive over the year</text>
  <text x="155" y="1218" font-size="9" fill="#555">Each: one <tspan font-family="monospace" fill="#1B9E77" font-weight="bold">graphmana ingest --mode incremental</tspan> command. Minutes, not weeks.</text>

  <use href="#clock" x="690" y="1024" width="18" height="18"/>
  <text x="715" y="1038" font-size="9" fill="#1B9E77" font-weight="bold">Minutes each</text>
  <text x="715" y="1051" font-size="8" fill="#888">(not months)</text>

  <!-- ================================================================ -->
  <!-- PHASE 7: PROVENANCE (solved)                                     -->
  <!-- ================================================================ -->
  <rect x="30" y="1250" width="140" height="28" rx="14" fill="#1B9E77"/>
  <text x="100" y="1269" text-anchor="middle" font-size="11" fill="#fff" font-weight="bold">Phase 7: Provenance</text>

  <rect x="140" y="1290" width="530" height="215" rx="10" fill="#D4EDDA" stroke="#1B9E77" stroke-width="2"/>
  <use href="#manifest" x="150" y="1298" width="22" height="28"/>
  <text x="180" y="1312" font-size="12" fill="#1B9E77" font-weight="bold">Every question has an answer:</text>

  <text x="165" y="1338" font-size="10" fill="#333">"Which VCF for the TreeMix run?"</text>
  <text x="500" y="1338" font-size="10" fill="#1B9E77" font-weight="bold">study.treemix.manifest.json</text>

  <text x="165" y="1362" font-size="10" fill="#333">"Were soft-deleted samples excluded?"</text>
  <text x="500" y="1362" font-size="10" fill="#1B9E77" font-weight="bold">manifest: excluded_samples: [...]</text>

  <text x="165" y="1386" font-size="10" fill="#333">"What filters on the PLINK file?"</text>
  <text x="500" y="1386" font-size="10" fill="#1B9E77" font-weight="bold">manifest: filters: {maf: 0.05, ...}</text>

  <text x="165" y="1410" font-size="10" fill="#333">"Re-create January EIGENSTRAT + new ClinVar?"</text>
  <text x="500" y="1410" font-size="10" fill="#1B9E77" font-weight="bold">Re-export: same command, new data</text>

  <text x="165" y="1434" font-size="10" fill="#333">"Student left, which file is final?"</text>
  <text x="500" y="1434" font-size="10" fill="#1B9E77" font-weight="bold">graphmana status --detailed</text>

  <text x="165" y="1458" font-size="10" fill="#333">"Prove same samples across analyses?"</text>
  <text x="500" y="1458" font-size="10" fill="#1B9E77" font-weight="bold">Manifests: identical sample lists</text>

  <text x="165" y="1488" font-size="10" fill="#1B9E77" font-weight="bold">All provenance is automatic. No extra effort from the user.</text>

  <!-- Person icon - happy -->
  <use href="#person" x="700" y="1305" width="22" height="30"/>
  <text x="712" y="1350" text-anchor="middle" font-size="18">&#x1F60A;</text>
  <text x="712" y="1373" text-anchor="middle" font-size="9" fill="#E6AB02">Data</text>
  <text x="712" y="1385" text-anchor="middle" font-size="9" fill="#E6AB02">Manager</text>

  <!-- ================================================================ -->
  <!-- BOTTOM SUMMARY                                                   -->
  <!-- ================================================================ -->
  <rect x="80" y="1530" width="940" height="65" rx="10" fill="#D4EDDA" stroke="#1B9E77" stroke-width="2.5"/>
  <text x="550" y="1552" text-anchor="middle" font-size="13" fill="#1B9E77" font-weight="bold">The same year: 0 merge cycles, 0 conversion scripts, automatic provenance on every export.</text>
  <text x="550" y="1572" text-anchor="middle" font-size="12" fill="#555">New batch? One command. New format? One command. New filters? Change one flag. Full audit trail? Built in.</text>
  <text x="550" y="1590" text-anchor="middle" font-size="12" fill="#1B9E77" font-weight="bold">Weeks of re-work become minutes of re-export.</text>
</svg>
